<svg id="Calque_1" data-name="Calque 1" xmlns="http://www.w3.org/2000/svg" viewBox="0 0 661.19 276.19"><defs><style>.cls-1{fill:#16161d;}.cls-2{fill:#e5742b;}.cls-3{fill:#e5752b;}.cls-4{fill:#e4742b;}.cls-5{fill:#de722a;}.cls-6{fill:#e2742b;}.cls-7{fill:#df732b;}.cls-8{fill:#c86929;}.cls-9{fill:#d8702a;}.cls-10{fill:#b86129;}.cls-11{fill:#7b4525;}.cls-12{fill:#b45f29;}.cls-13{fill:#cc6b2a;}.cls-14{fill:#ab5b28;}.cls-15{fill:#ac5c28;}.cls-16{fill:#ae5d28;}.cls-17{fill:#a55828;}.cls-18{fill:#714025;}.cls-19{fill:#17161d;}.cls-20{fill:#bb6229;}.cls-21{fill:#231c1e;}.cls-22{fill:#201a1e;}.cls-23{fill:#c46729;}.cls-24{fill:#201b1e;}.cls-25{fill:#251d1e;}.cls-26{fill:#18171d;}.cls-27{fill:#cf6c2a;}.cls-28{fill:#1e1a1e;}.cls-29{fill:#261d1e;}.cls-30{fill:#17171d;}.cls-31{fill:#1f1a1e;}.cls-32{fill:#211b1e;}.cls-33{fill:#b66029;}.cls-34{fill:#af5d28;}.cls-35{fill:#995327;}.cls-36{fill:#6d3e24;}.cls-37{fill:#b55f29;}.cls-38{fill:#aa5b28;}.cls-39{fill:#754225;}.cls-40{fill:#784325;}.cls-41{fill:#c36629;}.cls-42{fill:#623924;}.cls-43{fill:#c16529;}.cls-44{fill:#c5672a;}.cls-45{fill:#7c4525;}.cls-46{fill:#6a3d24;}.cls-47{fill:#c66829;}.cls-48{fill:#764325;}.cls-49{fill:#452c21;}.cls-50{fill:#8d4d26;}.cls-51{fill:#834926;}</style></defs><title>logo</title><path class="cls-1" d="M100.5-37q163.25,0,326.5-.1c3.42,0,4.1.68,4.1,4.1q-.19,134,0,268c0,3.42-.68,4.1-4.1,4.09q-326.5-.15-653,0c-3.42,0-4.1-.67-4.1-4.09q.19-134,0-268c0-3.42.68-4.1,4.1-4.1Q-62.75-36.92,100.5-37Z" transform="translate(230.1 37.1)"/><path class="cls-2" d="M-16.21,82.94c12.61,23,1.51,49.12-23,53.52-11,2-21.13-.24-29.8-7.7-4.83-.9-5.92-4.85-7.1-8.72-8.51-14.71-5.58-33.68,6.86-44.48,13-11.31,32.77-11.16,47.1.35C-18.1,76.53-16.62,79.29-16.21,82.94Z" transform="translate(230.1 37.1)"/><path class="cls-2" d="M49.33,92.83c0-7.56,0-14,0-20.46,0-2.34-.23-5.18,3.2-5,3.09.15,2.63,2.89,2.64,5,0,12.65.08,25.3,0,37.95-.1,13.36-8.68,23.72-21.54,26.28-13.11,2.6-25.78-3.95-30.67-15.86s-1.09-25.9,9.11-33a27.29,27.29,0,0,1,34.79,2.85C47.31,91.06,47.81,91.48,49.33,92.83Z" transform="translate(230.1 37.1)"/><path class="cls-2" d="M391.68,127.42c-12,10.4-24,12.4-34.86,6.24a27.35,27.35,0,0,1-12.14-32.38c4.23-12.82,16.45-20.16,30.23-18.15a26.39,26.39,0,0,1,22.76,25.3c.28,7.49.11,15,.05,22.48,0,2.22.59,5.23-2.88,5.29s-2.81-3-2.94-5.19C391.84,130.05,391.78,129.09,391.68,127.42Z" transform="translate(230.1 37.1)"/><path class="cls-3" d="M286.42,126.93c-8.18,9.27-17.56,11.8-28.27,9.25-13.36-3.19-21.71-15.93-19.91-29.93,1.82-14.17,13.43-23.75,28.28-23.35,13.72.37,24.91,10.7,25.73,24.36.5,8.29.16,16.63.17,24.94,0,1.9-.21,3.92-2.68,4-2.77.11-3.06-2-3.07-4.12C286.65,130.81,286.55,129.51,286.42,126.93Z" transform="translate(230.1 37.1)"/><path class="cls-3" d="M133.74,82.9c15.56,0,27.19,11.56,27.19,27.06S149.32,137.05,133.77,137,106.61,125.55,106.61,110,118.14,82.9,133.74,82.9Z" transform="translate(230.1 37.1)"/><path class="cls-4" d="M175.25,118.74c0-4-.09-8,0-12,.41-14.46,10.14-23.84,24.68-23.85s24.42,9.34,24.74,23.75c.19,8.5.05,17,0,25.5,0,2.21,0,4.77-3,4.71s-2.86-2.68-2.87-4.84c0-8,.06-16,0-24-.17-14.21-10.93-22.26-24.69-18.55-8.1,2.18-12.7,8.22-12.9,17.45-.17,8.32,0,16.66-.06,25,0,2.14.32,4.85-2.76,4.93-3.41.09-3.11-2.78-3.13-5.1C175.22,127.41,175.25,123.07,175.25,118.74Z" transform="translate(230.1 37.1)"/><path class="cls-5" d="M-72.9,155.14c-16.79,19.11-36.51,34.3-59.89,44.54a23.43,23.43,0,0,1-12.13,2.25c-4.25-.49-5.87-2.89-4.57-7a26.86,26.86,0,0,1,5.42-9.44,3.32,3.32,0,0,0,1.84-.68c7.87-4,14.1-9.81,19.52-16.71,2.28-2.91,3.53-7.28,8.35-7.46a4.12,4.12,0,0,1,1.67,1.37c2,2.75-.31,4.64-1.43,6.71-2.48,4.61-1.76,5.79,3.56,5.74a55.69,55.69,0,0,0,9.36-1.33,7.65,7.65,0,0,0,6.1-5.32c1.71-5.21,3.35-10.47.51-15.9-1.14-2.16-1.47-4.85,0-6.69,4.91-6.11,3.93-14.38,8.06-20.86-6,2.94-9.54,8.15-13.08,13.35-.81,1.86-3.15,2-4.12,3.73-3.35,3.51-5.22,8.09-8.32,11.75-2.89,3.42-5.07,7.78-10.16,8.66-.73-.44-1.17-1-.79-1.91,8.86-9.94,16.11-21.1,24.24-31.61a68.85,68.85,0,0,1,6.3-7c6.35-6.23,9.63-6.07,15.55.53a2.54,2.54,0,0,1,.41,2.7c-1.28,4.15-4.64,7.26-5.68,11.58-.69,2.85-1,5.48.43,8.2,1.84,3.43,1.59,6.72-1.25,9.6-2.6,2.65-2.63,6.36-3.91,9.34a90.42,90.42,0,0,0,10-9.62,2.52,2.52,0,0,1,3.56-.58A1.73,1.73,0,0,1-72.9,155.14Z" transform="translate(230.1 37.1)"/><path class="cls-6" d="M-26.15,44.85C-14.78,19.16.33-4,20.74-23.45a35.09,35.09,0,0,1,11.6-7.67c6.57-2.5,11.57.06,13.43,6.86S46.6-11,44.52-4.59C38.18,14.83,26,29.77,9.19,41.17A1.86,1.86,0,0,1,7,40.43,2.6,2.6,0,0,1,7,38.05c3-6.08,1.32-12.65,2-19a2.4,2.4,0,0,1,3.47-.83c2.66,2.86,3.88,6.39,4.26,11,7.78-7.74,13.77-15.69,18-25.63C26.39,4.62,21.27,8.85,18.38,16c-.71,1.77-1.34,3.48-3.72,3.3a3.25,3.25,0,0,1-1.83-1.36,12.42,12.42,0,0,1-1.26-6.05c.06-1.37,1-2.21,1.83-3.16A81.85,81.85,0,0,0,22.24-1.41a11.1,11.1,0,0,1,3.31-1c2.71.13,3.18-1.53,3-3.74,0-.91.19-1.8.28-2.7,1.71-3.36,3.86-6.54,4.51-10.36.22-1.3.56-2.71-.6-3.72-1.38-1.19-2.84-.47-4.15.22-4,2.08-7.13,4.67-7.21,9.76a24.83,24.83,0,0,1-2,8.14c-.66,1.78-1.47,3.4-3.81,3.15a4.1,4.1,0,0,1-1.91-1c-1.6-.94-.85-2.73-1.59-4.42-5,4.59-8.63,10-12.38,15.33A275.34,275.34,0,0,0-20.88,42.26c-1,1.88-1.3,4.77-4.55,4.45A1.35,1.35,0,0,1-26.15,44.85Z" transform="translate(230.1 37.1)"/><path class="cls-6" d="M-116.88,147.15c-14.44,14.21-31.46,23.24-51.76,25.53a33.25,33.25,0,0,1-16.7-1.94c-7.74-3.21-9.39-9.07-4.66-16a45,45,0,0,1,12.3-11.56,219.65,219.65,0,0,1,74.64-32.31,1.76,1.76,0,0,1,2.59.52c.29,3.49-2.72,3.41-4.7,3.94a252.25,252.25,0,0,0-39.7,14.55,135.71,135.71,0,0,0-13.76,7c-1.46.88-3.54,1.42-3.35,3.82.3,1.48,1.21,2.78,1.3,4.31-2,4.35-6,3.72-9.4,3.18-5.81-.94-9,2.38-11.95,6.29-1.91,2.56-.73,4.41,2.59,4.25,4.21-.21,8-1.17,10.93-4.82,3.33-4.13,5.67-4.21,9.52-1.28a2.61,2.61,0,0,1-.33,2.11c-1.34,1.56-2.66,3.13-1.69,5.41.25.87.52,1.73.83,2.58,1.94,2.86,4.46,1.42,6.73.77,9.23-2.66,17.34-7.55,25.22-12.75-2.78-1.77-8.43.29-7.72-6a7.09,7.09,0,0,1,1.86-1.76c5.51,0,11-.1,16.36,1.66A2.17,2.17,0,0,1-116.88,147.15Z" transform="translate(230.1 37.1)"/><path class="cls-4" d="M310.43,107.23c0-3.83-.16-7.66.05-11.48.18-3.31-.76-5.12-4.41-4.61a19,19,0,0,1-2.5,0c-1.69,0-3.07-.65-3.14-2.47s1.19-2.49,2.9-2.72c2.24-.31,5.35,1.19,6.52-1,1.07-2,.49-4.85.57-7.34.07-2.32,0-4.66.06-7,0-1.91.88-3.3,2.92-3.32s2.88,1.4,2.9,3.3a79.11,79.11,0,0,1,0,10c-.52,4.6,1.39,5.91,5.64,5.38a45.31,45.31,0,0,1,7,0,2.53,2.53,0,0,1,2.76,2.34c.13,1.86-1.11,2.71-2.81,2.76-3,.09-6,.17-9,0-2.56-.12-3.57.86-3.54,3.45.1,8.16-.14,16.32.13,24.47.23,7.32,4.66,11.52,12,12.07,1.46.11,3-.25,4.32.78a2.64,2.64,0,0,1,1,3.09c-.58,1.71-2,2-3.58,2.1a17.89,17.89,0,0,1-19.67-16.88c-.31-4.3-.06-8.65-.06-13Z" transform="translate(230.1 37.1)"/><path class="cls-7" d="M-21.86,75-22.12,73a15.69,15.69,0,0,1,1-2.91c3.22-4.21,7.86-5.4,12.76-5.53,4.4-.12,8.59-.51,12.48-2.82,3.18-1.89,6-.53,8.83,1.23a16.4,16.4,0,0,0,22.21-3.87c1-.79,2.31-.84,3.4-1.42,3.27-1,4.15-4.34,6.17-6.54C50.38,45,55.82,38.7,59.84,31.34c1.13-2.07,3.6-5.05,1.13-6.65-2.73-1.76-3.86,2.17-5.36,3.87-2,2.24-3.57,4.76-3.67,8-.21,6.91-2.26,9.26-9.06,10.88-1.52-.07-2.64-1.1-4-1.61-2.54-.78-4.91-.21-7.3.72-4.51,1.74-8.82,4-13.41,5.47-1.94.65-4,2.1-6.11.37a3.35,3.35,0,0,1-1.27-1.89c-.13-2.15,1.65-2.61,3-3.44,4.14-2.47,8.63-4.22,13-6.26C37,36,46.16,30,53.37,21.21a5.36,5.36,0,0,0,1.69-2.11,25.49,25.49,0,0,1,8.49-2.84c4.4-.61,6.69,1.6,6.24,6.06A25.09,25.09,0,0,1,65.5,33.41c-12.4,19-28.72,34-47.27,46.77a1.86,1.86,0,0,1-2.07-.42c-1.59-4.76,3.36-4.83,5-7.26a16.91,16.91,0,0,0-10.92,2.57,5.27,5.27,0,0,1-6.53-.13c-5.35-4.53-10.84-2.8-16.4-.78-2.17.79-4.18,2.06-6.57,2.15A5.82,5.82,0,0,1-21.86,75Z" transform="translate(230.1 37.1)"/><path class="cls-8" d="M73,103A23.17,23.17,0,0,1,99.32,82.76c1.89.26,3.37.95,3.46,2.88s-1.3,3-3.19,3.15c-1.16.11-2.33.07-3.5.12-10.51.51-17,6.83-17.32,17.42-.27,8.15-.09,16.32-.17,24.48a38.7,38.7,0,0,1-.52,4.41,2.85,2.85,0,0,1-1.51-2.92c0-8.91-1.85-17.76-1-26.71,2.2-12.3,5.17-15.72,16.81-19.5-11.16,3.6-12.93,5.45-16.5,17.17a1.66,1.66,0,0,1-1.43,1.19C73.59,104.33,73.43,103.55,73,103Z" transform="translate(230.1 37.1)"/><path class="cls-9" d="M12,50.2l1.08.84c1.06,2.27-.65,2.94-2.16,3.65a10.37,10.37,0,0,1-5.38.76c-9.1-.9-15.95,3.9-22.52,9.06-2.1,1.66-5.06,3.78-3,7.48L-22.12,73a6,6,0,0,1-3-4.06c-.48-1-1.12-2,.05-3,2.85-4.89,7.45-7.8,12.23-10.29C-3,50.6,6.91,45.77,16.8,40.83a1.51,1.51,0,0,1,1.93.52c1,2-.49,2.93-1.84,3.92a31.67,31.67,0,0,1-8.41,3.89C9.88,48.73,11.39,48,12,50.2Z" transform="translate(230.1 37.1)"/><path class="cls-10" d="M-21.86,75-19,75a12,12,0,0,1,5,3c8.79,7.7,14.33,8.1,24.49,2,2-1.18,3.93-3.53,6.54-1l1.23,1.18C7.41,89.4-3.92,92.12-16.21,82.94l-5.91-7A5,5,0,0,1-21.86,75Z" transform="translate(230.1 37.1)"/><path class="cls-11" d="M-101.09,111.89l-2-1A36.69,36.69,0,0,1-87.89,109c1.7.12,3.51.59,4,2.41.57,2.11-1.53,2.77-2.83,3.4-1.89.91-3.74,2.25-6,2a2.73,2.73,0,0,1-1.37.7c-3,.35-5.24,3.26-8.56,2.61a4.87,4.87,0,0,1-1.47-1.75c-.7-2.53.81-3.7,2.9-4,2.49-.43,4.77-1.63,7.1-1.75C-96.25,111.53-99.09,116.18-101.09,111.89Z" transform="translate(230.1 37.1)"/><path class="cls-12" d="M-78,124.05l1.06-2.18c.94-.31.73-1.14.83-1.83q3.56,4.35,7.1,8.72c-1.16,1.2,0,2.15.41,3.11,3.76,8.74,2.13,16.44-4.33,23.27L-74,154c-1.74-1.46-.89-3,0-4.43,4.58-7.49,3.37-14.5-1.68-21.18C-76.7,127.06-77.11,125.45-78,124.05Z" transform="translate(230.1 37.1)"/><path class="cls-13" d="M73,103l1.19,1.4c2,1.39,1.18,3.49,1.22,5.29.11,5.39.09,10.79.06,16.19,0-6-.15-12,.13-17.93.07-1.55-.38-3.14,1.48-4,1.82,6.86.49,13.86.84,20.78.18,3.47.09,7,.13,10.44-.62,1.81-2,2.14-3.57,1.62s-2-2.12-1.94-3.65C72.73,123.13,72,113.05,73,103Z" transform="translate(230.1 37.1)"/><path class="cls-14" d="M18,41.9,16.8,40.83C29.25,33.05,41.49,24.91,55.06,19.1c.12.68.48,1.38-.26,1.95C45.15,29.4,33.68,35,23.09,41.89,21.48,42.94,19.67,44.3,18,41.9Z" transform="translate(230.1 37.1)"/><path class="cls-15" d="M8.07,40.21l1.12,1C3.24,45.84-4,48.06-10.64,51.29-16,53.91-21.33,56.62-25,61.65c-3.1-3,.83-4.19,1.6-6.19,7.7-8.22,18.58-10.85,28-16C5.93,38.81,7.22,38.68,8.07,40.21Z" transform="translate(230.1 37.1)"/><path class="cls-16" d="M-94.17,116.88l1.4-.08c-7.91,8-13.31,17.88-20.25,26.6a42.79,42.79,0,0,1-3.86,3.75l-1.22-1.22c-1.38-2-.21-3.46,1.1-4.76,4.63-4.56,7.91-10.11,11.42-15.48A22.07,22.07,0,0,1-94.17,116.88Z" transform="translate(230.1 37.1)"/><path class="cls-17" d="M-143,186.93c-1.12.13-1.18-.57-1.08-1.39,5.93-9.42,13.48-17.5,21.07-25.55l.89,1c2.46,2.42,0,3.81-1.25,5.27C-129.6,173.4-135.57,180.85-143,186.93Z" transform="translate(230.1 37.1)"/><path class="cls-18" d="M-22,56.08c-1.16,1.77-2.85,3.26-3,5.57-.36,1.1-.71,2.2-1.07,3.3-.76,1-1.08,2.49-2.77,2.41-3.2-1.75-3.83-4.32-2.39-7.54a3.41,3.41,0,0,0,1.74-.38c2.05-2.07,2.87-4.84,4.13-7.34.81-1.62,1.58-2.84,3.62-2.29a3.75,3.75,0,0,1,1.57,1.56C-19.41,53.45-22.07,54.23-22,56.08Z" transform="translate(230.1 37.1)"/><path class="cls-17" d="M-30.12,61.94c-.36-.71-.71-1.42-1.07-2.12a43.69,43.69,0,0,1,5-15l.91,1.06a2.41,2.41,0,0,1,1.06,3.27C-26.25,53.39-27.3,58.08-30.12,61.94Z" transform="translate(230.1 37.1)"/><path class="cls-1" d="M-28.8,67.36c.86-.87,1.07-2.49,2.77-2.41l1,1c0,1,0,2-.05,3Z" transform="translate(230.1 37.1)"/><path class="cls-19" d="M-16.07,102.29A29.25,29.25,0,0,1-45.93,131.9c-17.08-.05-30-13.12-29.83-30.19.16-16.78,13.2-29.45,30.16-29.31S-16,85.34-16.07,102.29Z" transform="translate(230.1 37.1)"/><path class="cls-1" d="M49.3,110.1c-.07,12.44-9.21,21.65-21.4,21.55S6.72,122.21,6.76,109.79,16,88.24,28.21,88.3,49.37,97.56,49.3,110.1Z" transform="translate(230.1 37.1)"/><path class="cls-1" d="M349.17,109.73A21.21,21.21,0,0,1,370.81,88.3c12.08.12,21.16,9.59,21.06,22s-9.4,21.55-21.6,21.39S349.05,122.08,349.17,109.73Z" transform="translate(230.1 37.1)"/><path class="cls-1" d="M286.64,110.41c-.2,12.37-9.53,21.47-21.75,21.24S243.81,122,244,109.58A21.14,21.14,0,0,1,265.72,88.3C277.78,88.51,286.84,98.08,286.64,110.41Z" transform="translate(230.1 37.1)"/><path class="cls-1" d="M155.08,110.31c-.11,12.37-9.39,21.52-21.63,21.34s-21.24-9.66-21.07-22A21.22,21.22,0,0,1,134.09,88.3C146.21,88.45,155.18,97.86,155.08,110.31Z" transform="translate(230.1 37.1)"/><path class="cls-1" d="M-102,136c3.65-4.31,6.73-9.1,11-12.82a26.84,26.84,0,0,1,5.22-3.75c1.78-.92,4.06-1.36,5.44.63s-.93,2.89-1.91,4c-3.09,3.48-4.64,7.62-5.65,12-.79,3.45-.81,7-4.28,9.54-2,1.44-1.35,4.1.12,6.31,4.23,6.33.77,12.41-1.17,18.3-1.42,4.31-5.14,6.06-9.82,6.16-4.13.08-8.25.85-12.37,1.31-1.44.16-2.92.74-4.09-.82-1.29-1.73-.34-3.18.44-4.6,1.68-3.06,3.45-6,5.19-9.08.74-5.85,4.88-10.23,7-15.54C-105.37,143.8-103.6,139.91-102,136Z" transform="translate(230.1 37.1)"/><path class="cls-19" d="M-78,124.05c8.5,3.91,12.1,15.75,7.39,24.52-1,1.88-2.25,3.64-3.39,5.45-5,4.8-10.06,9.62-15.11,14.4a5.07,5.07,0,0,1-1.48.59c.92-4.53,1.83-8.85,2.64-13.19a3.24,3.24,0,0,1,1.45-2.44c4-2.43,4.65-5.45,1.29-8.89-1.45-1.48-1-3.08-.63-4.64C-84.46,134-82.45,128.39-78,124.05Z" transform="translate(230.1 37.1)"/><path class="cls-19" d="M-101.59,178.24c-12.11,8.54-23.18,16.28-36.7,19.47a15.88,15.88,0,0,1-4.47.12,3.87,3.87,0,0,1-3.82-2.67c-.64-2,.76-3,2.14-4a58.74,58.74,0,0,1,14.66-7.3,3.07,3.07,0,0,1,2.84.08c3.57,2.08,6.33,1.27,8.2-2.44.9-1.8,2.77-1.76,4.31-2C-110.7,178.77-107,177.63-101.59,178.24Z" transform="translate(230.1 37.1)"/><path class="cls-19" d="M-143,186.93c3.41-7,9.25-12.13,14.07-18,2.2-2.7,4.53-5.3,6.81-7.94A150.88,150.88,0,0,0-105,140c2.15-.3,2.2,1.26,1.76,2.46-2.65,7.25-5.78,14.25-11.7,19.57-4.73,6.16-9.44,12.35-14.23,18.47-1.29,1.64-3.51,1.69-5.27,2.53C-137.27,184.37-140.14,185.63-143,186.93Z" transform="translate(230.1 37.1)"/><path class="cls-20" d="M-114.94,162c3-5.48,7.44-10.19,9.53-16.19.63-1.81,2.47-3.76.41-5.84l3-4c.46,11-5.87,19-11.84,27.21Z" transform="translate(230.1 37.1)"/><path class="cls-21" d="M-88,145.13c2,.34,3.29,1.45,3.15,3.65a3,3,0,0,1-3.18,3.14c-2.15,0-3.56-1.2-3.55-3.31S-90.28,145.31-88,145.13Z" transform="translate(230.1 37.1)"/><path class="cls-22" d="M-120.21,180c-.35,2.09-1.51,3.28-3.66,3.17a3,3,0,0,1-3.15-3.08,3.08,3.08,0,0,1,3.32-3.43C-121.59,176.68-120.43,177.93-120.21,180Z" transform="translate(230.1 37.1)"/><path class="cls-1" d="M-30.12,61.94c.63-5.65,3.25-10.69,4.88-16A240.59,240.59,0,0,1,14-13.73c2.18,3.4.85,6.49.81,9.45C15.65.55,13.68,4.94,11.67,8.9a103,103,0,0,0-5.1,11.16C3.7,27.91-3.31,32.28-8.86,37.9c-3.08,2.41-4,6.35-6.62,9.15-1.86,2-3.67,3.79-6.58,3.88-2.78,3.39-4.41,7.39-6.22,11.31C-29.14,64.1-29.78,63.67-30.12,61.94Z" transform="translate(230.1 37.1)"/><path class="cls-1" d="M-22,56.08c-1.48-1.71.58-2.79.76-4.2,1.93-6.23,7-10.35,10.55-15.44C-5.38,30.7.11,25.17,5.88,19.94c1.35-1.23,2.75-2.92,4.19-.07,2.27,7.07,2.7,14-2,20.34-7.79,5-16.66,7.84-24.74,12.27C-18.53,53.5-20.2,54.87-22,56.08Z" transform="translate(230.1 37.1)"/><path class="cls-19" d="M14.89,18c.8-5.69,4.39-9.49,8.55-13,1.8-1.52,3.25-3.18,6-2.77a3.85,3.85,0,0,0,3.79-2c1.52-2.44,3.88-2.62,7.07-2.84-5.48,15.47-14.64,27.59-27.34,38.8,1.18-6.16,1.32-11.07-.69-15.8C12.18,18.5,13.49,18.17,14.89,18Z" transform="translate(230.1 37.1)"/><path class="cls-19" d="M24.09,1,15,10.16c-2.62.82-4.36.61-3.42-2.86C12.56,3.66,13.45,0,15.9-3c1.82-4.15,3.44-8.36,2.55-13a3.13,3.13,0,0,1,1.16-3.09c3.56-3.32,7.33-6.37,12-7.93s5.89-.44,5.22,4.31A34.39,34.39,0,0,1,31-8,20,20,0,0,0,24.09,1Z" transform="translate(230.1 37.1)"/><path class="cls-23" d="M15.9-3C14.83.2,13.72,3.43,12.68,6.67,12,8.75,12.29,10.28,15,10.16l-2,1.68c-1,2-1,3.75,1,5.15l.89,1-2.65,2.4a2.17,2.17,0,0,0-2.17-.48C7.73,19,6.37,20.56,5,22q-7.56,7.47-15.08,15c-.84.22-1.31.1-.87-.9A140,140,0,0,1,3.27,20.85C5,19.2,6.62,17.7,6,15a2.76,2.76,0,0,1,.53-2.33c5.6-4.27,5.06-11.52,8.32-16.9Z" transform="translate(230.1 37.1)"/><path class="cls-24" d="M41-22.72C43.7-17.94,43-13,41.81-8.24,41-5,37.57-4.68,35-4.4c-1.81.18-1.52-1.78-.71-3A49,49,0,0,0,41-22.72Z" transform="translate(230.1 37.1)"/><path class="cls-25" d="M30.07-6.15c2.4,1.28,3.45,3.21,1.65,5.49S27.78,1,26-1C24.67-5.58,25.57-6.71,30.07-6.15Z" transform="translate(230.1 37.1)"/><path class="cls-26" d="M14,17c-1.78,1.15-3.59,1.76-5.33,0a2.93,2.93,0,0,1-.61-3.21c.92-2.42,3-2.17,5-1.93A4.29,4.29,0,0,1,14,17Z" transform="translate(230.1 37.1)"/><path class="cls-12" d="M30.07-6.15c-3.46.07-4.52,2-4.12,5.18L24.09,1c-.39-7.33.54-8.55,6.9-9C30.69-7.4,30.38-6.78,30.07-6.15Z" transform="translate(230.1 37.1)"/><path class="cls-1" d="M-101.09,111.89c4.74-.22,9.43-1.59,15.09-.47-6,2.86-12.18,3.1-17.09,6.49-1.4,4.54-5.27,6.43-9.19,7.7-7.28,2.35-13.39,6.53-19.33,11.1-10.69,6.26-22,8.93-34.37,6.44-1.36-.47-2.93-.48-4.43-2.25A232.1,232.1,0,0,1-101.09,111.89Z" transform="translate(230.1 37.1)"/><path class="cls-1" d="M-94.17,116.88c-5.27,3.52-8.45,8.86-11.79,14a83.26,83.26,0,0,1-12.14,15.08,43.63,43.63,0,0,1-15.52-1.15c-1.72-.18-3.81.39-4.49-2-.59-2.11,1.33-2.82,2.36-4a24.59,24.59,0,0,1,3.83-3.15c8.15-5.56,16.17-11.34,25.2-15.46,1.44-.65,2.7-2,4.55-1.39C-99.44,118.41-97.29,115.57-94.17,116.88Z" transform="translate(230.1 37.1)"/><path class="cls-19" d="M-134.95,145.85c3.85,2.4,8.18,2.43,12.54,2.51-4.15,7.42-29.84,19.64-41.32,19.67-.21-2,1.33-3.32,1.72-5.05a11.26,11.26,0,0,1,3.8-7.18c5.63-5.18,11.08-10.62,19.44-11.14C-137.16,144.56-135.87,144.28-134.95,145.85Z" transform="translate(230.1 37.1)"/><path class="cls-19" d="M-160.06,153.22c-2.92-1.17-5.75-.55-6.58,2.37-1,3.49-3.46,4.07-6.17,4.81a34,34,0,0,1-11.79,1.22c-2.86-.24-3.94-1.36-2.75-4.15,2.3-5.42,6.64-9,11.2-12.35,1.23-.91,2.57-.24,3.83.08a19.17,19.17,0,0,0,10.3-.26c3.91-2,8.21-2.29,12.44-2.88,1.43-.2,3.06-.21,3.71,1.65.52,1.51-.37,2.58-1.3,3.48-2.88,2.78-6.47,4.58-9.69,6.9C-158.37,155.17-159.24,154.39-160.06,153.22Z" transform="translate(230.1 37.1)"/><path class="cls-27" d="M-160.06,153.22c5.36-.33,8.66-4.35,12.43-7.3,1.89-1.48.44-3-1.75-2.78-4.23.48-8.43,1.19-12.64,1.8l-4-1.79c5.84.2,12.21,0,17-2.33,5.49-2.71,12.31-1,16.77-5.95,1-.34,1.33.12,1.15,1.09-1,.82-2,1.72-3.06,2.45-3.57,2.42-3.25,4.5.46,6.37l-1.33,1.07c-7.33,1.73-14.81,3.07-20.39,8.88-.83.86-1.65,1.55-1.7,2.85-.11,3.2-2.14,4.68-5,5.4l-1-1.81c.69-2.36.51-4.95,1.91-7.12Z" transform="translate(230.1 37.1)"/><path class="cls-28" d="M-183.93,165.8a46.46,46.46,0,0,0,16-3.79c.89-.41,1.9-.87,2.75,0s.15,1.82-.22,2.71c-1.35,3.2-3.4,4.9-7.22,4.53C-176.66,168.89-180.63,168.6-183.93,165.8Z" transform="translate(230.1 37.1)"/><path class="cls-29" d="M-161.11,154.05c3.52,4,3.09,5.61-1.91,7.12-1.65-.91-3.09-2-2.54-4.17S-163.24,154.05-161.11,154.05Z" transform="translate(230.1 37.1)"/><path class="cls-1" d="M-20,72c-5.44-.84-3.14-4.14-1.66-6.4,2.5-3.81,6.58-6,10.44-8.21,4.55-2.63,9-5.32,14.81-4.29A14.2,14.2,0,0,0,13.09,51c7.6-1.91,14.3-6.12,21.75-8.42,2.23-.69,4.43-1.68,6.47.39a21.65,21.65,0,0,1-4.24,17c-1.2,4.55-4.39,7-8.81,7.71s-9,.39-13.44.11c-.49,0-1.24,0-1.42-.27C9.68,61.91,5.78,63.24.93,66.43c-2,1.32-5.53.22-8.34.48C-12.09,67.33-16.62,68.27-20,72Z" transform="translate(230.1 37.1)"/><path class="cls-1" d="M17,79c-2.69,1.63-5.32,3.35-8.08,4.85C-2.2,89.92-13.1,86.43-19,75c5.32-4.74,11.85-5.48,18.57-5.69a3.9,3.9,0,0,1,3.66,2c1.51,2.22,4.38,3.26,6,1.6,3.87-3.92,8.5-2.57,12.92-3,1.8-.18,3.6-.33,6.15-.56C25,73.66,20.45,75.75,17,79Z" transform="translate(230.1 37.1)"/><path class="cls-19" d="M42.92,46c.71-1.54,2.25-1.77,3.6-2.38a4.78,4.78,0,0,0,2.91-5.26C49,33.4,56.09,21.05,60.65,19.26c3-1.17,4.45.46,4.64,3.31.2,3.08-.93,5.87-2.33,8.56-4.34,8.36-10.51,15.33-16.88,22.14-2,2.19-4.12,4.34-6.18,6.5-1.92.45-1.95-1.05-1.66-2C39.44,53.68,39.85,49.28,42.92,46Z" transform="translate(230.1 37.1)"/><path class="cls-30" d="M18,41.9c9.71-5.82,19.39-11.66,29.12-17.44a23.57,23.57,0,0,1,7.72-3.41c-2.41,3.56-4.58,7.33-7.3,10.63s-6.88,4.55-10.37,6.55c-8,4.6-16.71,8.05-25.12,12-3.28.57-6.47,2-11,1.25Z" transform="translate(230.1 37.1)"/><path class="cls-31" d="M47.87,38.86c-.18,2.16-1.31,3.49-3.44,3.49A3.16,3.16,0,0,1,41,38.92a3,3,0,0,1,3.13-3.15C46.33,35.62,47.5,36.82,47.87,38.86Z" transform="translate(230.1 37.1)"/><path class="cls-32" d="M10.83,68.24c-.35,2.25-1.46,3.63-3.63,3.57A3.16,3.16,0,0,1,4,68.19a3.06,3.06,0,0,1,3.22-3.12C9.37,65,10.41,66.4,10.83,68.24Z" transform="translate(230.1 37.1)"/><path class="cls-33" d="M42.92,46c-1,3.11-2.13,6.19-3.07,9.32-.44,1.46-1.65,3,0,4.49-.85,1.11-1.84.68-2.83.27.29-6,3.57-11.17,4.24-17Z" transform="translate(230.1 37.1)"/><path class="cls-25" d="M77.11,104q-.3,15.45-.61,30.89H74.22V104.41c3.81-14,11-20.09,23.41-19.74a4.14,4.14,0,0,1,3.58,1.58C89.12,87.2,78.7,90.07,77.11,104Z" transform="translate(230.1 37.1)"/><path class="cls-34" d="M-131,136l-1.15-1.09c9-6.84,18.49-12.84,29.08-17l.92.84C-112.66,123-121.64,129.83-131,136Z" transform="translate(230.1 37.1)"/><path class="cls-35" d="M-11,36l.87.9q-5.55,7.48-11.09,15l-.86-1C-18.89,45.57-15.53,40.36-11,36Z" transform="translate(230.1 37.1)"/><path class="cls-30" d="M-59.93,99.55l1.62.35a1.29,1.29,0,0,1,.65,1.64c-2.52,6.84-3.19,14-3.68,21.18a1.35,1.35,0,0,1-2.14.17,22.8,22.8,0,0,1-4-4.4c-4.57-6.53-4.59-6.52.92-12.56l.57-.39C-64.93,102.59-62.18,101.32-59.93,99.55Z" transform="translate(230.1 37.1)"/><path class="cls-19" d="M-45.94,84.34l-.11.18c.4,1.92,3.54,3.29,2.2,5.14-1.59,2.19-3.9-.32-5.85-.67-4.41-.79-8.75-1.9-13.25-2-1.3,0-2.72.24-3.59-1.14A11.67,11.67,0,0,1-51.16,79C-48.4,79.76-48.63,83.47-45.94,84.34Z" transform="translate(230.1 37.1)"/><path class="cls-19" d="M-39.8,88.15A17,17,0,0,1-44.44,82c-2.12-1.56-6.11-2.62-4.6-5.79,1.26-2.64,5-1.36,7.65-.82,3.52.73,7.28,1.53,7.36,6.37-.1,3.58.4,7.18-.38,10.73-.2.9.14,2-1.1,2.76C-38.18,93.67-38.9,90.86-39.8,88.15Z" transform="translate(230.1 37.1)"/><path class="cls-19" d="M-53,114.44l3,3.26a16.2,16.2,0,0,0,4.61,5.11c1.61,1.16,3.53,2.57,2.88,4.77s-3.11,1.14-4.79,1.4a12,12,0,0,1-2,0c-7.85-1.55-8.27-1.9-8.66-7.34,0-2.94-.18-5.88.46-8.79.26-1.19-.43-2.92,1.34-3.25s1.86,1.53,2.61,2.49A3.82,3.82,0,0,1-53,114.44Z" transform="translate(230.1 37.1)"/><path class="cls-36" d="M-69.21,89.72c5-1.59,9.89-.17,14.81.43,1.15.14,2.45.41,2.54,1.89.06,1.14-.94,1.63-1.82,2.14-3.13,1.82-6.72,3-8.8,6.31-.33,1.89-1.21,3-3.34,2.39L-67,103c-.68-.24-1.42-.39-1.82-1.09-.58-3.65,2.8-4.32,4.68-6.07a14.59,14.59,0,0,1,4.76-2.75,18.06,18.06,0,0,1-6,.24A4,4,0,0,1-69.21,89.72Z" transform="translate(230.1 37.1)"/><path class="cls-16" d="M-34.83,81.93c-1.33-4.86-5.24-6.49-13.31-5.5.35,2.47,3,3.41,3.7,5.6H-46c-3-.33-4.13-2.54-5-5-1-1.65-.27-2.58,1.37-2.77a21.82,21.82,0,0,1,5.47-.16c9.54,1.25,11.15,1.14,11,11.7C-35.81,85.4-33.74,83-34.83,81.93Z" transform="translate(230.1 37.1)"/><path class="cls-37" d="M-26.87,103.13c1.91-1.84,3.8-3.7,5.74-5.51s3-1.09,3.19,1.25c.35,5.31.42,10.61-3,15.21a5.06,5.06,0,0,1-4.41-.06c-1.25-1.56-.2-2.68.71-3.86,2-2.59,1.67-4.38-1.81-5A1.56,1.56,0,0,1-26.87,103.13Z" transform="translate(230.1 37.1)"/><path class="cls-38" d="M-68,102l1,1c-2.13,1.31-3.23,5.47-5.92,4.15-2.35-1.15-1.42-5-1-7.44.63-3.64-.33-8.32,4.72-10l5.09,1c.19,1.88-1.56,2.34-2.46,3.44C-68.45,96.48-70.6,98.81-68,102Z" transform="translate(230.1 37.1)"/><path class="cls-39" d="M-24.94,113.09c1.12,1.2,2.61.93,4,1-5.95,2.16-11.84.58-17.73-.3-.81-.12-1.81-.52-1.6-1.5a3.43,3.43,0,0,1,1.52-1.78c3.93-2.5,7.9-4.92,11.86-7.37l.84.84c1.45,1.61.32,2.66-.81,3.73a44.86,44.86,0,0,1-4.46,3.18C-29.2,111.75-25.89,109.05-24.94,113.09Z" transform="translate(230.1 37.1)"/><path class="cls-40" d="M-66.06,85c.4.26.79.7,1.21.75A89.23,89.23,0,0,1-44.14,90c-.86-2.49-1.39-4-1.91-5.48a12.36,12.36,0,0,1,1.66,1.82c.82,1.34,2.67,2.68,1.44,4.31-1,1.38-2.77.18-4.14-.21a80.23,80.23,0,0,0-18.09-2.63c-.82-.45-2.14-.24-2.32-1.52C-67.64,85.33-67.17,84.73-66.06,85Z" transform="translate(230.1 37.1)"/><path class="cls-41" d="M-30.92,79.09C-25.3,81.22-22.55,86-20.07,91c1.18,2.37-.79,3.55-1.94,5-1,.27-1.41,0-1-1,1.52-4.31-.67-8.72-6.44-12.91-1.12,1.45-.35,3.18-.72,4.72C-32.73,84.42-31.43,81.72-30.92,79.09Z" transform="translate(230.1 37.1)"/><path class="cls-42" d="M-53,114.44l-2.79-3.94c-2.23,4.06-.62,8-1.3,11.62-1.3,1.44.93,3.55-.92,4.89-2.21-5.87-.81-11.71.31-17.49.43-2.17,2-2.72,3.34-.55C-53.35,110.58-52,112.26-53,114.44Z" transform="translate(230.1 37.1)"/><path class="cls-41" d="M-66.06,85c-1.36,1.46.35,2,.88,2.85-1.23-.15-2.87.68-3.56-.8s.75-2.39,1.58-3.33a32.79,32.79,0,0,1,7.62-6.18c2.7-1.67,5.15-1.88,7.49.53,1.08.43,1.78,1,1.11,2.31C-57.87,75.71-61.62,81.45-66.06,85Z" transform="translate(230.1 37.1)"/><path class="cls-43" d="M-66.59,105.93c-4.27,7.06-3.54,9.85,4.36,16.77,1.87,0,1.91,1,1.29,2.36-5.56-2.1-8.77-6.6-10.63-11.77C-72.94,109.48-69.61,107.49-66.59,105.93Z" transform="translate(230.1 37.1)"/><path class="cls-44" d="M-40,123.89c3.95,4,7.11.89,10.3-1.23,1.62-1.07,3.26-2.19,4.07-4.11-1-.93-2.17-.48-3.24-.68,1.57-2.83,3.83-1,5.85-.87-2.41,6.88-10.89,12.17-15.91,9.92-1.07-.36-2.33-.52-2.35-2.06C-41.28,124-40.73,123.79-40,123.89Z" transform="translate(230.1 37.1)"/><path class="cls-45" d="M-60.94,125.06a3,3,0,0,0-1.29-2.36c-.12-7.84,2.31-15.25,3.92-22.8.31.38,1,.85.88,1.12C-59.59,108.89-59.3,117.11-60.94,125.06Z" transform="translate(230.1 37.1)"/><path class="cls-39" d="M-30.92,79.09a22.1,22.1,0,0,0,.72,7.68c.22,6.41-2.24,12.24-3.87,18.3a4.27,4.27,0,0,1-.73-.33C-32.48,96.34-32.51,87.59-30.92,79.09Z" transform="translate(230.1 37.1)"/><path class="cls-46" d="M-34.83,81.93c.56,1.29,1.11,2.58,1.66,3.86a19.61,19.61,0,0,1-.77,7.84c-.28,1.11-.39,2.5-1.8,2.63S-37.6,95-38,94c-.78-1.88-3-3.35-1.78-5.84l3.89,6.17C-33.89,89.91-35.2,85.83-34.83,81.93Z" transform="translate(230.1 37.1)"/><path class="cls-47" d="M-58,127c.22-1.65-.48-3.46.92-4.89.15,5.41,4.59,5.07,8.07,6,2.41.13,5.11,1.65,6.88-1.41,1.24-.36,1.71.4,2,1.39C-41.82,131.52-45,130-47.45,130-51.18,130.08-54.9,129.43-58,127Z" transform="translate(230.1 37.1)"/><path class="cls-48" d="M-23,117c-2,0-4-.1-5.85.87a30.74,30.74,0,0,1-15.53-3.41C-37.38,116.6-30,115.05-23,117Z" transform="translate(230.1 37.1)"/><path class="cls-49" d="M-40.11,128.13-42,126.57c-2-1.23-4.58-2-4-5.17.06-1.26-.88-3.85,2-1.75a34.33,34.33,0,0,1,4.1,4.24c-1.18,1.56.94,1.94,1.07,3Z" transform="translate(230.1 37.1)"/><path class="cls-50" d="M-46,121.4c.68,2.23,2.87,3.29,4,5.17-1.61,3.69-4.35,2.43-7,1.58l5.25-.36c-1.63-3.93-5.84-5.89-6.28-10.09Z" transform="translate(230.1 37.1)"/><path class="cls-49" d="M-50.94,80.35-52,78l1-1a17.26,17.26,0,0,1,5,5c0,.77.05,1.54.08,2.31C-48.74,84.43-50.16,82.78-50.94,80.35Z" transform="translate(230.1 37.1)"/><path class="cls-42" d="M-65.82,102.88l3.34-2.4c.85-.3,1.7-.62,2.55-.93-1.28,2.76-3.72,4.34-6.09,6Z" transform="translate(230.1 37.1)"/><path class="cls-51" d="M-23,95l1,1a10,10,0,0,1-6,4.73Z" transform="translate(230.1 37.1)"/><path class="cls-24" d="M-141.9,139.74c2.21.12,3.57,1.19,3.53,3.36a3,3,0,0,1-3.19,3.08c-2.14,0-3.49-1.09-3.43-3.31A3.08,3.08,0,0,1-141.9,139.74Z" transform="translate(230.1 37.1)"/><path class="cls-19" d="M-68,102l-3.06,2.52c-2.51-7.39.24-12.69,7-13.72l11,.53C-58.55,95.67-64.16,97.66-68,102Z" transform="translate(230.1 37.1)"/><path class="cls-19" d="M-24.94,113.09c-4.25.11-8.54,1.23-13.19-.72,3.81-3.44,8.87-4.68,12.1-8.4l5.42-4.31C-18.79,105.91-20.59,111.28-24.94,113.09Z" transform="translate(230.1 37.1)"/></svg>